<svg xmlns="http://www.w3.org/2000/svg" width="131" height="132" viewBox="0 0 131 132">
  <g id="loader" transform="translate(-895 -1820)">
    <g id="Ellipse_1" data-name="Ellipse 1" transform="translate(895 1820)" fill="none" stroke="#fcfafa" stroke-width="2">
      <ellipse cx="65.5" cy="66" rx="65.5" ry="66" stroke="none"/>
      <ellipse cx="65.5" cy="66" rx="64.5" ry="65" fill="none"/>
    </g>
    <g id="Tracé_40" data-name="Tracé 40" transform="translate(981.118 1860.5) rotate(90)" fill="#fcfafa">
      <path d="M 49.94155502319336 32.56756591796875 C 46.58884048461914 32.41395568847656 35.98752593994141 31.96988487243652 25.5 31.96988487243652 C 15.01247215270996 31.96988487243652 4.411159992218018 32.41395568847656 1.058445692062378 32.56756591796875 C 3.095601081848145 29.93325424194336 9.438648223876953 21.71872901916504 14.67852973937988 14.80296421051025 C 19.91130065917969 7.896567344665527 24.16030311584473 0.4576234817504883 25.5 -1.958608984947205 C 26.83969688415527 0.4576234817504883 31.08869934082031 7.896567344665527 36.32146835327148 14.80296421051025 C 41.56135177612305 21.71872901916504 47.90439987182617 29.93325424194336 49.94155502319336 32.56756591796875 Z" stroke="none"/>
      <path d="M 25.5 -0.9347991943359375 C 23.8080997467041 2.063478469848633 19.85005187988281 8.805347442626953 15.07706069946289 15.10492420196533 C 10.31344223022461 21.39210891723633 4.638137817382812 28.75262832641602 2.113651275634766 32.0200080871582 C 6.303035736083984 31.83784484863281 15.94861602783203 31.46988487243652 25.5 31.46988487243652 C 35.05138397216797 31.46988487243652 44.69696426391602 31.83784484863281 48.88634872436523 32.0200080871582 C 46.36186218261719 28.75262832641602 40.68655776977539 21.39210891723633 35.92293930053711 15.10492420196533 C 31.14994812011719 8.805347442626953 27.1919002532959 2.063478469848633 25.5 -0.9347991943359375 M 25.5 -2.999996185302734 C 25.5 -2.999996185302734 30.34499931335449 6.087064743041992 36.72000122070312 14.50101375579834 C 43.09500122070312 22.91495513916016 51 33.11840438842773 51 33.11840438842773 C 51 33.11840438842773 38.25 32.46988296508789 25.5 32.46988296508789 C 12.75 32.46988296508789 0 33.11840438842773 0 33.11840438842773 C 0 33.11840438842773 7.904998779296875 22.91495513916016 14.27999877929688 14.50101375579834 C 20.65500068664551 6.087064743041992 25.5 -2.999996185302734 25.5 -2.999996185302734 Z" stroke="none" fill="#fcfafa"/>
    </g>
  </g>
</svg>
