<svg id="Groupe_480" data-name="Groupe 480" xmlns="http://www.w3.org/2000/svg" xmlns:xlink="http://www.w3.org/1999/xlink" width="209.064" height="72.908" viewBox="0 0 209.064 72.908">
  <defs>
    <clipPath id="clip-path">
      <rect id="Rectangle_11" data-name="Rectangle 11" width="50.903" height="53.589" fill="none"/>
    </clipPath>
    <clipPath id="clip-path-2">
      <rect id="Rectangle_12" data-name="Rectangle 12" width="37.868" height="37.604" fill="none"/>
    </clipPath>
    <clipPath id="clip-path-3">
      <rect id="Rectangle_13" data-name="Rectangle 13" width="38.081" height="37.6" fill="none"/>
    </clipPath>
    <clipPath id="clip-path-4">
      <rect id="Rectangle_14" data-name="Rectangle 14" width="38.105" height="38.514" fill="none"/>
    </clipPath>
  </defs>
  <g id="Groupe_378" data-name="Groupe 378" transform="translate(0 0)">
    <g id="Groupe_382" data-name="Groupe 382" transform="translate(0 0)">
      <g id="Groupe_367" data-name="Groupe 367" transform="translate(0.164 0.033)" opacity="0.35">
        <g id="Groupe_366" data-name="Groupe 366">
          <g id="Groupe_365" data-name="Groupe 365" clip-path="url(#clip-path)">
            <path id="Tracé_5" data-name="Tracé 5" d="M.191.363A5.183,5.183,0,0,1,1.521.028C11.368.253,21.215.47,31.057.789a14.517,14.517,0,0,1,4.187.946c6.557,2.272,8.83,7.886,5.115,13.78-2.1,3.333-5.153,6.05-8.287,9.626L51.035,53.05c-2.086,1.394-3.805-.037-5.294-1.588C39.3,44.762,32.6,38.273,26.695,31.121c-3.069-3.714-6.148-4.049-10.027-3.235,0,6.643-.053,13.154.085,19.662.014.623,1.139,1.565,1.9,1.763a49.126,49.126,0,0,0,5.593.854l-.093.891H.282c-.049-.28-.1-.56-.15-.84,1.779-.266,3.549-.654,5.336-.762,1.813-.111,2.525-.931,2.524-2.725Q7.966,25.7,8.013,4.666c0-1.8-.734-2.594-2.564-2.651C3.674,1.96,1.907,1.594.137,1.365q.028-.5.054-1M16.542,25.394c5.224-.031,9.991-.813,13.657-4.758,4.008-4.312,4.276-10.631.486-14.263-3.89-3.73-8.733-4.414-14.143-4.3Z" transform="translate(-0.133 -0.028)" fill="#1a1818"/>
          </g>
        </g>
      </g>
      <g id="Groupe_370" data-name="Groupe 370" transform="translate(164.731 14.019)" opacity="0.35">
        <g id="Groupe_369" data-name="Groupe 369">
          <g id="Groupe_368" data-name="Groupe 368" clip-path="url(#clip-path-2)">
            <path id="Tracé_6" data-name="Tracé 6" d="M147.26,16.06V47.836l4.283.286c-.022.271-.046.541-.068.811H141.22c.409-.825.409-.825,4.086-1.051V13.774l-4.2-.288c.011-.291.023-.58.035-.871a15.482,15.482,0,0,1,1.732-.182c3.151.006,6.305.121,9.453.033a3.342,3.342,0,0,1,3.144,1.671c5.183,7.295,10.447,14.531,15.693,21.78.4.553.875,1.051,1.514,1.813V13.811l-4.357-.338.074-.813h10.443l.137.688-4.514.538V49.64l-.614.4a13.376,13.376,0,0,1-2.12-1.87q-11.2-15.095-22.326-30.243c-.5-.68-1.019-1.35-1.529-2.024l-.611.16" transform="translate(-141.106 -12.433)" fill="#1a1818"/>
          </g>
        </g>
      </g>
      <g id="Groupe_373" data-name="Groupe 373" transform="translate(90.231 14.02)" opacity="0.35">
        <g id="Groupe_372" data-name="Groupe 372">
          <g id="Groupe_371" data-name="Groupe 371" clip-path="url(#clip-path-3)">
            <path id="Tracé_7" data-name="Tracé 7" d="M108.707,37.738V13.807l-4.36-.325c.023-.272.046-.544.069-.816h10.8c-1.265,2.018-3.23.278-4.72,1.463v35.5l-.614.4a13.077,13.077,0,0,1-2.119-1.859Q96.5,32.992,85.311,17.754a5.491,5.491,0,0,0-1.926-1.769V47.847l4.186.27c-.022.271-.043.542-.066.813H77.257c.4-.828.4-.828,4.072-1.045V13.771l-4.2-.278c.01-.291.021-.583.031-.875a15.433,15.433,0,0,1,1.727-.184c3.151.006,6.305.119,9.453.033a3.345,3.345,0,0,1,3.149,1.663c5.182,7.3,10.445,14.532,15.69,21.781.4.554.877,1.055,1.524,1.827" transform="translate(-77.132 -12.433)" fill="#1a1818"/>
          </g>
        </g>
      </g>
      <g id="Groupe_376" data-name="Groupe 376" transform="translate(50.147 12.982)" opacity="0.35">
        <g id="Groupe_375" data-name="Groupe 375">
          <g id="Groupe_374" data-name="Groupe 374" clip-path="url(#clip-path-4)">
            <path id="Tracé_8" data-name="Tracé 8" d="M42.867,31.076c-.017-11,8.444-19.614,19.187-19.535,10.7.078,18.952,8.616,18.916,19.571A18.618,18.618,0,0,1,62.019,50.054,18.673,18.673,0,0,1,42.867,31.076m31.1-.12c-.7-3.366-1.134-7.459-2.43-11.262-1.693-4.973-5.419-6.952-10.767-6.6-5.03.33-8.052,2.791-9.343,7.939a42.687,42.687,0,0,0-.62,16.41,20.122,20.122,0,0,0,1.543,5.324c1.868,4.192,5.654,6.212,10.494,5.85,5.255-.393,8.2-2.446,9.447-7.211.825-3.156,1.061-6.465,1.676-10.45" transform="translate(-42.867 -11.54)" fill="#1a1818"/>
          </g>
        </g>
      </g>
      <path id="Tracé_9" data-name="Tracé 9" d="M42.817,31.085C42.8,20.086,51.261,11.471,62,11.55c10.7.078,18.952,8.616,18.917,19.571A18.618,18.618,0,0,1,61.969,50.063,18.673,18.673,0,0,1,42.817,31.085m31.1-.12c-.7-3.366-1.134-7.459-2.43-11.262-1.693-4.973-5.419-6.952-10.767-6.6-5.03.33-8.052,2.791-9.343,7.939a42.687,42.687,0,0,0-.62,16.41A20.122,20.122,0,0,0,52.3,42.776c1.868,4.192,5.654,6.212,10.494,5.85,5.255-.393,8.2-2.446,9.447-7.211.825-3.156,1.061-6.465,1.676-10.45" transform="translate(7.272 1.443)" fill="#1a1818"/>
      <path id="Tracé_10" data-name="Tracé 10" d="M.059.335A5.18,5.18,0,0,1,1.389,0c9.847.225,19.693.442,29.536.761a14.517,14.517,0,0,1,4.187.946c6.557,2.272,8.83,7.886,5.115,13.78-2.1,3.333-5.153,6.05-8.287,9.626L50.9,53.023c-2.086,1.394-3.805-.038-5.294-1.588-6.437-6.7-13.136-13.189-19.046-20.342-3.069-3.714-6.148-4.049-10.027-3.235,0,6.643-.053,13.154.085,19.662.014.623,1.139,1.565,1.9,1.762a49.132,49.132,0,0,0,5.593.855l-.093.889H.15c-.049-.278-.1-.559-.15-.839,1.779-.266,3.549-.656,5.336-.762,1.813-.111,2.525-.933,2.524-2.725q-.026-21.032.021-42.062c0-1.8-.734-2.594-2.564-2.651C3.542,1.933,1.775,1.567,0,1.338q.028-.5.054-1M16.41,25.367c5.224-.031,9.991-.813,13.657-4.758,4.008-4.312,4.276-10.631.486-14.263-3.89-3.73-8.733-4.414-14.143-4.3Z" transform="translate(0 -0.001)" fill="#1a1818"/>
      <path id="Tracé_15" data-name="Tracé 15" d="M147.654,89.315c0-.092-.11-.137-.21-.137v-.165H150.3c.908,0,1.357.477,1.357,1.018a1.093,1.093,0,0,1-.6.918v.009a1.123,1.123,0,0,1,.715,1.019c0,.576-.421,1.073-1.5,1.073h-2.817v-.166c.1,0,.21-.046.21-.137Zm.881,1.294h1.633c.294,0,.606-.092.606-.468,0-.395-.312-.449-.606-.449h-1.633Zm0,1.762h1.616c.559,0,.732-.192.732-.523,0-.376-.247-.559-.88-.559h-1.468Z" transform="translate(-27.409 -22.883)" fill="#1a1818"/>
      <path id="Tracé_16" data-name="Tracé 16" d="M154.079,91.334l-1.56-2a.418.418,0,0,0-.33-.157v-.165H153.7v.165c-.063,0-.156.046-.156.12s.056.127.12.21l.927,1.211.816-1.137c.11-.157.165-.221.165-.293,0-.093-.073-.111-.137-.111v-.165h1.4v.165c-.146,0-.348.212-.476.377l-1.4,1.815v1.377c0,.092.073.137.174.137v.166h-1.221v-.166c.092,0,.166-.046.166-.137Z" transform="translate(-26.562 -22.883)" fill="#1a1818"/>
      <path id="Tracé_17" data-name="Tracé 17" d="M171.733,94.672l-.166.166-.229-.021a19.262,19.262,0,0,1-2.616,1.143,8.208,8.208,0,0,1-2.7.5,7.5,7.5,0,0,1-4.713-1.473,5.359,5.359,0,0,1-.021-8.221,7.747,7.747,0,0,1,4.734-1.475,9.947,9.947,0,0,1,1.764.146,8.735,8.735,0,0,1,1.515.332q.655.187,1.122.374a2.7,2.7,0,0,0,.5.187c.041,0,.083-.02.166-.1a1.718,1.718,0,0,0,.125-.166l.31.25-1.619,2.511-.208-.145-.041-.27c-.042-.291-.477-.581-1.329-.872a7.648,7.648,0,0,0-2.3-.456,4.822,4.822,0,0,0-3.094,1.017,3.595,3.595,0,0,0-.021,5.46,4.828,4.828,0,0,0,3.115,1,7.364,7.364,0,0,0,2.719-.539c.935-.374,1.392-.747,1.413-1.121a.394.394,0,0,0-.084-.249l.291-.167Z" transform="translate(-25.506 -23.766)" fill="#ae0721"/>
      <path id="Tracé_18" data-name="Tracé 18" d="M166.035,96.532a7.543,7.543,0,0,1-4.751-1.487,5.422,5.422,0,0,1-.021-8.321,7.863,7.863,0,0,1,4.771-1.488,9.984,9.984,0,0,1,1.778.147,8.734,8.734,0,0,1,1.524.334c.434.124.814.251,1.124.375a2.714,2.714,0,0,0,.476.183c.016,0,.045-.01.12-.085.019-.026.038-.052.057-.074a.433.433,0,0,0,.056-.075l.035-.071.418.334-1.686,2.615-.285-.2-.045-.3c-.027-.184-.271-.475-1.288-.823a7.638,7.638,0,0,0-2.286-.453,4.745,4.745,0,0,0-3.052,1,3.287,3.287,0,0,0-1.242,2.671,3.324,3.324,0,0,0,1.222,2.691,4.789,4.789,0,0,0,3.074.981,7.3,7.3,0,0,0,2.7-.534c.891-.356,1.352-.715,1.372-1.065a.328.328,0,0,0-.07-.208l-.043-.058.406-.231,1.43,2.295-.224.223-.239-.022a19.089,19.089,0,0,1-2.608,1.137,8.219,8.219,0,0,1-2.72.5m0-11.169a7.628,7.628,0,0,0-4.7,1.461,5.3,5.3,0,0,0,.021,8.12,7.419,7.419,0,0,0,4.675,1.461,8.1,8.1,0,0,0,2.678-.494,19.146,19.146,0,0,0,2.606-1.138l.017-.01.218.021.109-.11-1.311-2.105-.179.1a.464.464,0,0,1,.057.228c-.022.414-.5.8-1.451,1.18a7.422,7.422,0,0,1-2.744.544,4.911,4.911,0,0,1-3.154-1.011,3.659,3.659,0,0,1,.021-5.559,4.876,4.876,0,0,1,3.133-1.03,7.74,7.74,0,0,1,2.326.46c.876.3,1.325.6,1.371.923l.037.242.131.092,1.552-2.408-.212-.171c-.009.011-.019.022-.028.036s-.037.046-.061.077c-.1.1-.151.129-.216.129a2.1,2.1,0,0,1-.523-.192,11.673,11.673,0,0,0-1.113-.371,8.553,8.553,0,0,0-1.508-.33,9.884,9.884,0,0,0-1.755-.145" transform="translate(-25.52 -23.778)" fill="#ae0721"/>
      <path id="Tracé_19" data-name="Tracé 19" d="M174.058,87.184h2.867v.356c-.3,0-.435.1-.455.3v6.583h5.339c.355,0,.533-.139.553-.414h.356v2.135h-.356c0-.158-.178-.238-.553-.257h-7.751v-.356c.336,0,.495-.1.515-.3V87.837c0-.2-.158-.3-.515-.3Z" transform="translate(-22.758 -23.316)" fill="#ae0721"/>
      <path id="Tracé_20" data-name="Tracé 20" d="M182.794,96.216h-.482v-.064c0-.041,0-.167-.494-.193h-7.812v-.482h.064c.379,0,.439-.129.45-.24V87.848c0-.108-.051-.233-.45-.233h-.064v-.482H177v.482h-.064c-.323,0-.38.121-.391.24V94.37h5.276c.416,0,.479-.2.49-.356l0-.059h.479Zm-.364-.127h.238V94.08h-.236c-.043.276-.249.416-.61.416h-5.4V87.848c.022-.228.171-.343.454-.358v-.231h-2.74v.23c.178,0,.515.043.515.359v7.395c-.032.314-.345.355-.515.36v.229h7.688c.242.014.555.054.609.257" transform="translate(-22.771 -23.328)" fill="#ae0721"/>
      <path id="Tracé_21" data-name="Tracé 21" d="M185.311,95.883v-.356c.356,0,.533-.1.553-.3V87.836c0-.2-.177-.3-.553-.3v-.356h3v.356c-.355,0-.533.1-.553.3V95.23c0,.2.178.3.553.3v.356Z" transform="translate(-20.529 -23.317)" fill="#ae0721"/>
      <path id="Tracé_22" data-name="Tracé 22" d="M188.391,95.959h-3.132v-.482h.064c.466,0,.484-.181.49-.24V87.848c0-.058,0-.233-.49-.233h-.064v-.484h3.132v.484h-.063c-.418,0-.48.136-.49.239v7.389c0,.057,0,.234.49.234h.063Zm-3-.127h2.879V95.6c-.367-.012-.554-.132-.554-.359V87.848c.023-.228.209-.346.554-.359v-.23h-2.879v.23c.367.012.553.132.553.359v7.395c-.022.228-.208.346-.553.359Z" transform="translate(-20.543 -23.329)" fill="#ae0721"/>
      <path id="Tracé_23" data-name="Tracé 23" d="M192.632,95.883v-.356c.235,0,.354-.1.354-.3V87.836c0-.2-.119-.3-.354-.3v-.356h2.906v.356c-.041,0-.08.02-.14.1a2.393,2.393,0,0,0,.435.533l4.746,5.022V87.836c0-.2-.12-.3-.4-.3v-.356H202.6v.356c-.239,0-.358.1-.358.3V95.23c0,.2.119.3.358.3v.356h-2.572v-.356c.079,0,.118-.02.139-.1,0-.04-.079-.139-.237-.3-.139-.158-.257-.3-.376-.435l-4.9-5.22V95.23q0,.3.416.3v.356Z" transform="translate(-20.761 -23.317)" fill="#ae0721"/>
      <path id="Tracé_24" data-name="Tracé 24" d="M202.673,95.959h-2.7v-.482h.064c.051,0,.063-.006.072-.037a1.1,1.1,0,0,0-.216-.25c-.142-.162-.26-.3-.379-.439l-4.792-5.1v5.594c0,.1.037.234.351.234h.063v.482H192.58v-.482h.064c.259,0,.291-.125.291-.234V87.848c0-.109-.032-.233-.291-.233h-.064v-.484h3.033v.484h-.063c-.007,0-.026,0-.067.047a3.987,3.987,0,0,0,.409.479l4.636,4.9v-5.2c0-.121-.04-.233-.333-.233h-.063v-.484h2.54v.484h-.064c-.259,0-.292.124-.292.233v7.395c0,.109.033.234.292.234h.064Zm-2.571-.127h2.443V95.6a.338.338,0,0,1-.356-.357V87.848a.338.338,0,0,1,.356-.357v-.231h-2.286v.231c.264.015.4.136.4.357v5.518L195.8,88.228c-.452-.484-.452-.547-.452-.578v-.021l.012-.017a.326.326,0,0,1,.126-.111v-.241h-2.78v.231a.338.338,0,0,1,.355.357v7.395a.338.338,0,0,1-.355.357v.231h2.3V95.6c-.34-.02-.414-.2-.414-.359V89.329l5.012,5.336c.12.14.239.28.377.437.233.233.252.3.252.339a.179.179,0,0,1-.137.157Z" transform="translate(-20.774 -23.329)" fill="#ae0721"/>
      <path id="Tracé_25" data-name="Tracé 25" d="M213.439,89.09h-.356c0-.238-.2-.356-.612-.376h-4.826v1.978h3.046a1.632,1.632,0,0,0,.475-.04c.118-.02.177-.1.177-.277h.356v2.1H211.3c.038-.119,0-.2-.139-.236a2.922,2.922,0,0,0-.633-.079h-2.887v2.333h5.063c.355,0,.533-.119.553-.4h.356v2.135h-.356c0-.178-.178-.257-.553-.277H205.45V95.6a.262.262,0,0,0,.3-.3V87.9a.262.262,0,0,0-.3-.3v-.356h7.02c.395,0,.593-.118.612-.355h.356Z" transform="translate(-17.723 -23.385)" fill="#ae0721"/>
      <path id="Tracé_26" data-name="Tracé 26" d="M213.692,96.3h-.482V96.24c0-.087-.057-.19-.494-.213H205.4v-.482h.063c.165,0,.234-.069.234-.234V87.916c0-.163-.069-.233-.234-.233H205.4V87.2h7.083c.47,0,.538-.171.549-.3l0-.058h.477v2.322h-.482V89.1c0-.122-.057-.288-.552-.312h-4.759v1.851H210.7a1.619,1.619,0,0,0,.454-.036c.069-.014.134-.04.134-.218v-.063h.484v2.223h-.547l.027-.083a.131.131,0,0,0,0-.1.153.153,0,0,0-.1-.061,3.013,3.013,0,0,0-.62-.077h-2.819v2.207h5c.411,0,.478-.171.49-.336l0-.059h.479Zm-.362-.127h.235V94.168h-.235c-.042.267-.242.4-.61.4h-5.126V92.1h2.95a2.939,2.939,0,0,1,.653.083.259.259,0,0,1,.173.121.207.207,0,0,1,.022.111h.255V90.451h-.233a.265.265,0,0,1-.226.277,1.637,1.637,0,0,1-.485.041h-3.11V88.663h4.889c.161.007.621.03.672.376h.234V86.971h-.238c-.049.238-.273.356-.668.356h-6.957v.233a.318.318,0,0,1,.3.356v7.395a.319.319,0,0,1-.3.358V95.9h7.194c.265.015.563.059.61.277" transform="translate(-17.735 -23.397)" fill="#ae0721"/>
      <path id="Tracé_27" data-name="Tracé 27" d="M218.744,95.619a.262.262,0,0,0,.3-.3V88.737H216.47c-.277,0-.414.1-.435.336h-.355V86.8h.355a.565.565,0,0,0,.12.376.655.655,0,0,0,.315.1h7.039a.464.464,0,0,0,.317-.1c.079-.059.119-.178.119-.376h.356v2.274h-.356a.258.258,0,0,0-.139-.238.654.654,0,0,0-.3-.1h-2.571v6.585c0,.2.12.3.356.3v.356h-2.551Z" transform="translate(-15.298 -23.407)" fill="#ae0721"/>
      <path id="Tracé_28" data-name="Tracé 28" d="M221.37,96.05h-2.678v-.482h.064c.163,0,.233-.071.233-.234v-6.52h-2.506c-.289,0-.359.11-.372.277l0,.058h-.476v-2.4h.481v.063a.506.506,0,0,0,.106.336.674.674,0,0,0,.275.075h7.03a.4.4,0,0,0,.277-.084c.064-.049.1-.155.1-.327v-.063h.481v2.4h-.481v-.063a.2.2,0,0,0-.108-.183.616.616,0,0,0-.275-.09h-2.5v6.52c0,.109.033.234.293.234h.063Zm-2.551-.127h2.425v-.231a.337.337,0,0,1-.356-.357V88.686h2.634a.721.721,0,0,1,.334.111.316.316,0,0,1,.16.225h.234V86.875h-.23a.454.454,0,0,1-.142.364.536.536,0,0,1-.355.111h-7.039a.734.734,0,0,1-.354-.111.6.6,0,0,1-.143-.364h-.23v2.147h.236c.041-.226.2-.336.491-.336h2.634v6.648a.316.316,0,0,1-.3.356Z" transform="translate(-15.31 -23.419)" fill="#ae0721"/>
      <path id="Tracé_29" data-name="Tracé 29" d="M108.615,37.755V13.824l-4.36-.325c.023-.272.046-.544.069-.816h10.8c-1.265,2.018-3.23.278-4.72,1.463v35.5l-.614.4a13.078,13.078,0,0,1-2.119-1.859Q96.406,33.009,85.219,17.771A5.491,5.491,0,0,0,83.293,16V47.864l4.186.27c-.022.271-.043.542-.066.813H77.165c.4-.828.4-.828,4.072-1.045V13.788l-4.2-.278c.01-.291.021-.583.031-.875a15.434,15.434,0,0,1,1.727-.184c3.151.006,6.305.119,9.453.033A3.345,3.345,0,0,1,91.4,14.147c5.182,7.3,10.445,14.532,15.69,21.781.4.554.877,1.055,1.524,1.827" transform="translate(13.084 1.589)" fill="#1a1818"/>
      <path id="Tracé_30" data-name="Tracé 30" d="M147.168,16.078V47.854l4.283.286c-.022.271-.046.541-.068.811H141.128c.409-.825.409-.825,4.086-1.051V13.792l-4.2-.288c.011-.291.023-.58.035-.871a15.779,15.779,0,0,1,1.732-.182c3.151.006,6.305.121,9.453.033a3.342,3.342,0,0,1,3.145,1.671c5.183,7.295,10.447,14.531,15.693,21.78.4.553.875,1.051,1.514,1.813V13.829l-4.357-.338.074-.813h10.443l.137.688-4.514.538V49.658l-.614.4a13.376,13.376,0,0,1-2.12-1.87q-11.2-15.095-22.326-30.243c-.5-.68-1.019-1.35-1.529-2.024l-.611.16" transform="translate(23.603 1.588)" fill="#1a1818"/>
      <path id="Tracé_31" data-name="Tracé 31" d="M146.444,49.112H128.179l-.126-.758c.8-.111,1.587-.276,2.386-.322.983-.056,1.972-.014,3.213-.014-1.16-3.68-2.238-7.219-3.434-10.718a1.867,1.867,0,0,0-1.439-.855q-4.3-.122-8.595,0a1.908,1.908,0,0,0-1.431.907c-1.4,3.423-2.691,6.893-4.215,10.871h6.368c-.012.25-.026.5-.038.751H108.863c-.052-.173-.105-.346-.158-.52.594-.142,1.233-.5,1.77-.387,1.719.374,2.408-.456,2.947-1.929q5.791-15.815,11.685-31.592c.414-1.111.392-2.474,2.349-2.485,1.941-.012,1.969,1.3,2.376,2.432,3.727,10.363,7.463,20.723,11.111,31.114.656,1.867,1.468,2.969,3.652,2.449a5.553,5.553,0,0,1,1.978.294c-.043.252-.085.5-.129.757m-21.515-27.8h-.451c-1.588,4.488-3.175,8.977-4.781,13.514h9.789c-1.571-4.661-3.064-9.088-4.556-13.516" transform="translate(18.471 1.558)" fill="#1a1818"/>
    </g>
  </g>
</svg>
