<svg xmlns="http://www.w3.org/2000/svg" width="38.27" height="21.037" viewBox="0 0 38.27 21.037">
  <g id="Groupe_364" transform="translate(-36.1 -68.4)">
    <path id="Tracé_4" d="M63.5,68.4H74.37v.753a15.442,15.442,0,0,1-1.644.178c-1.307-.02-1.486.059-1.505,1.486-.1,5.031-.059,10.063-.02,15.094,0,.852.079,1.822,1.426,1.7a8.6,8.6,0,0,1,1.743.119v.931H64.724c-.258-.832.2-.852.792-.951,2.357-.456,2.318.515,2.3-2.3v-6.1a14.6,14.6,0,0,0-1.882.02,1.88,1.88,0,0,0-1.109.475c-1.109,1.169-2.12,2.417-3.249,3.566-2.02,2.06-4.081,4.041-6.141,6.061h-.376a22.436,22.436,0,0,1-1.8-1.545c-1.644-1.664-3.249-3.328-4.853-5.031-.693-.733-1.288-1.565-1.981-2.318-.4-.436-.812-1.03-1.307-1.189a8.953,8.953,0,0,0-2.3-.059v8.2c1.089.119,2.04.218,2.991.317v.872H36.12v-.753a19.051,19.051,0,0,1,2.337-.357c.753-.02.872-.357.852-.971-.02-2.377,0-4.734-.02-7.111V69.549c-1.089-.119-2.139-.238-3.189-.357V68.44H46.975c.951.2,1.9.317,2.813.574,2.714.733,3.783,2.971,2.5,5.467a8.8,8.8,0,0,1-3.526,3.546c2.12,3.189,4.2,6.339,6.3,9.469h.4c2.08-3.15,4.18-6.3,6.022-9.053-1.05-1.228-1.981-2.2-2.793-3.268-1.743-2.337-1.07-5.249,1.743-6,1.03-.337,2.06-.535,3.07-.773M42.8,78.324a8.036,8.036,0,0,0,4.952-1.585,5.175,5.175,0,0,0,1.406-4.061c-.416-2.318-4.259-3.625-6.339-3.169-.02,2.872-.02,5.784-.02,8.815m25.018.02V71.49c0-2.377,0-2.377-2.318-1.961a5.592,5.592,0,0,0-3.288,1.664,3.964,3.964,0,0,0,.3,5.15c1.426,1.525,3.268,1.783,5.309,2" fill="#0d0e13"/>
  </g>
</svg>
